:SAMPLES-PER-SECOND 30
:FULLY-SPECIFIED
:DEGREES
169
root  -55.9929 35.0208 29.6624 -174.242 58.8783 179.184
RightUpLeg  -6.4005 -10.744 -5.13312
RightLeg  4.59058 -1.48163 -0.0224122
RightFoot  7.80237 0.0468107 -0.0318383
RightToes  -26.3959 -0.119906 -0.224702
Spine  -2.76754 0.657235 -1.73272
Spine1  -5.37478 1.72138 -2.99333
HEad  -64.3638 2.78495 -4.30941
LeftShoulder1  -1.94126e-019 -3.10601e-018 -2.51263e-017
LeftArm  1.74578 -0.962614 -62.0943
LeftForeArm  33.6152 -67.5766 -24.7724
LeftHand  -0.247606 -1.42228 4.37221
RightShoulder  -4.96962e-017 0 -2.36833e-017
RightArm  1.50686 -22.1376 73.2308
RightForeArm  53.4475 32.1625 4.17063
RightHand  -0.1093 1.83222 -1.92169
LeftUpLeg  -5.66796 3.67867 -2.40373
LeftLeg  5.43245 18.5511 0.556392
LeftFoot  3.78816 -0.0447881 1.44553
LeftToes  -12.7924 1.48321e-006 1.01846e-007
170
root  -56.0496 35.0132 29.5854 -174.031 59.2558 179.314
RightUpLeg  -6.54118 -10.7413 -5.19947
RightLeg  4.4721 -1.11068 -0.0142874
RightFoot  7.95474 0.0442971 0.0086755
RightToes  -26.3499 -0.121967 -0.22729
Spine  -2.70236 0.761495 -1.80296
Spine1  -5.28306 1.85129 -3.10508
HEad  -63.9569 1.88599 -3.77527
LeftShoulder1  -1.94126e-019 -3.10601e-018 -2.51263e-017
LeftArm  -0.0297858 4.14971 -63.9301
LeftForeArm  30.6162 -65.98 -22.9696
LeftHand  -0.303383 0.922392 7.84927
RightShoulder  -4.96962e-017 0 -2.36833e-017
RightArm  0.621393 -21.8735 73.6654
RightForeArm  52.6876 31.8323 4.12926
RightHand  -0.0505055 1.5417 -0.989274
LeftUpLeg  -5.79679 3.52274 -2.52044
LeftLeg  5.54525 19.0674 0.608193
LeftFoot  3.59974 -0.0422384 1.41325
LeftToes  -12.8897 1.48321e-006 1.01846e-007
171
root  -56.1081 35.0082 29.5121 -173.934 59.6276 179.282
RightUpLeg  -6.67128 -10.8196 -5.33835
RightLeg  4.26321 -0.673621 -0.00587038
RightFoot  8.19273 0.0411033 0.0577917
RightToes  -26.9781 -0.123715 -0.230026
Spine  -2.5682 0.863695 -1.69998
Spine1  -5.04044 1.94843 -2.83532
HEad  -63.9421 0.983276 -4.12454
LeftShoulder1  -1.94126e-019 -3.10601e-018 -2.51263e-017
LeftArm  -1.4078 9.34931 -65.6505
LeftForeArm  29.7012 -63.509 -20.1958
LeftHand  -0.306209 0.993128 8.04354
RightShoulder  -4.96962e-017 0 -2.36833e-017
RightArm  -0.190553 -21.3268 73.7123
RightForeArm  53.0544 31.8273 4.11752
RightHand  -0.0790275 1.48653 -1.47514
LeftUpLeg  -5.90586 3.63824 -2.71641
LeftLeg  5.53522 19.3128 0.612416
LeftFoot  3.45941 -0.039718 1.37704
LeftToes  -12.5851 1.48321e-006 1.01846e-007
172
root  -56.1619 34.9956 29.441 -173.883 59.828 179.236
RightUpLeg  -6.87205 -10.9014 -5.4884
RightLeg  4.35854 -0.400119 -0.0037705
RightFoot  8.22213 0.0389064 0.0914743
RightToes  -27.24 -0.125247 -0.232333
Spine  -2.45242 0.870283 -1.83188
Spine1  -4.85388 1.87796 -3.05432
HEad  -64.1369 0.513992 -4.03608
LeftShoulder1  -1.94126e-019 -3.10601e-018 -2.51263e-017
LeftArm  -3.1499 14.4038 -66.7091
LeftForeArm  27.9275 -60.5894 -17.6783
LeftHand  -0.247184 0.614422 5.99473
RightShoulder  -4.96962e-017 0 -2.36833e-017
RightArm  -0.628295 -20.7978 74.3254
RightForeArm  53.3274 31.1193 3.94572
RightHand  -0.114378 1.54717 -2.06082
LeftUpLeg  -6.11869 3.8071 -2.89998
LeftLeg  5.79576 19.3244 0.699044
LeftFoot  3.18761 -0.033523 1.27904
LeftToes  -12.2099 1.48321e-006 1.01846e-007
173
root  -56.2378 34.9825 29.3884 -173.676 59.7312 179.344
RightUpLeg  -7.12926 -11.1688 -5.53587
RightLeg  4.55372 -0.236905 -0.00263762
RightFoot  8.21055 0.0375621 0.111717
RightToes  -27.3122 -0.126664 -0.233967
Spine  -2.303 0.8226 -1.81768
Spine1  -4.5826 1.70994 -2.96886
HEad  -64.7783 0.223513 -4.23126
LeftShoulder1  -1.94126e-019 -3.10601e-018 -2.51263e-017
LeftArm  -4.11216 18.5906 -67.8828
LeftForeArm  24.5725 -56.2426 -14.8619
LeftHand  -0.162202 0.788831 4.03464
RightShoulder  -4.96962e-017 0 -2.36833e-017
RightArm  -2.01899 -20.2417 74.8177
RightForeArm  53.7148 30.8031 3.86038
RightHand  -0.130098 1.42857 -2.3545
LeftUpLeg  -6.5636 3.55921 -2.99258
LeftLeg  6.36803 19.4599 0.894637
LeftFoot  2.854 -0.026835 1.16843
LeftToes  -11.8526 1.48321e-006 1.01846e-007
174
root  -56.2907 34.9663 29.3186 -173.455 59.9526 179.381
RightUpLeg  -7.53933 -11.1454 -5.62257
RightLeg  4.85794 -0.0434987 9.65043e-005
RightFoot  8.18477 0.035705 0.137961
RightToes  -27.6476 -0.128062 -0.235286
Spine  -2.2055 0.937399 -2.01014
Spine1  -4.42133 1.89301 -3.32824
HEad  -65.5135 0.21028 -3.4168
LeftShoulder1  -1.94126e-019 -3.10601e-018 -2.51263e-017
LeftArm  -5.1001 21.8686 -68.8752
LeftForeArm  23.6607 -51.2158 -12.1672
LeftHand  -0.115095 0.904895 2.89007
RightShoulder  -4.96962e-017 0 -2.36833e-017
RightArm  -2.98875 -19.9227 75.67
RightForeArm  53.6102 29.9873 3.68445
RightHand  -0.161719 1.25696 -2.9537
LeftUpLeg  -6.91747 3.51682 -3.14709
LeftLeg  6.72598 19.7317 1.02772
LeftFoot  2.58945 -0.0224336 1.08813
LeftToes  -11.7342 1.48321e-006 1.01846e-007
